<?xml version="1.0" encoding="UTF-8"?>
<svg xmlns="http://www.w3.org/2000/svg" viewBox="0 0 1024.5 1024.5">
	<defs>
		<style>
			.cls-1 {
			fill: #fff;
			}

			.cls-1, .cls-2 {
			opacity: .22;
			}

			.cls-1, .cls-2, .cls-3 {
			stroke-width: 0px;
			}

			.cls-2 {
			fill: #000047;
			}

			.cls-3 {
			fill: #e5007f;
			}
		</style>
	</defs>
	<g id="bg">
		<rect id="fill" class="cls-3" width="1024" height="1024"/>
	</g>
	<g id="kage">
		<path id="no4" class="cls-2" d="m1024.5,1024.5h-399s210-88.65,399-425.32v425.32Z"/>
		<path id="no3" class="cls-2" d="m.5,1024.5v-28.16s63-257.84,107-341.84c0,0-23,100-41,206,0,0,132.12-288.53,253.06-433.26-.06.26-168.74,343.26-232.9,597.26H.5Z"/>
		<path id="no2" class="cls-2" d="m245.37,1024.5h-92.13s88.61-265.4,223.43-417.7c0,0-93.43,245.7-131.3,417.7Z"/>
		<path id="no1" class="cls-2" d="m520.21,1024.5h-68.13s147.42-262,257.42-288c0,0-77.58,29-189.29,288Z"/>
	</g>
	<g id="hikari">
		<path id="whole" class="cls-1" d="m1024.5,512.5s-205,310-277,387c0,0,132-387,88.58-605.35-.11-.54-219.58,55.35-332.58,176.35S228.5,751.5,92.5,1004.5c8,0,201-745,539-983,0,0-119-6-587,432,0,0,169.58-333,350.29-453-.29,0,85.16,0,85.16,0,0,0-112.45,88-185.45,167,0,0,159.71-146,230.35-167-.35,0,267.87,0,267.87,0,0,0-215.23,91-513.23,627,0,0,113-165,194-242s211-159,429-199c0,0,45,64-71,542,0,0,77-65,193-246v30Z"/>
		<path id="lt" class="cls-1" d="m.5,254.73S182.44,35.5,272.47.5c59.03,0,58.84,0,58.84,0C331.31.5,202.5,49.5.5,294.15"/>
	</g>
</svg>