<?xml version="1.0" encoding="UTF-8"?>
<svg id="lock" xmlns="http://www.w3.org/2000/svg" viewBox="0 0 591 790">
	<defs>
		<style>
			.cls-1 {
			fill: #fff;
			opacity: .75;
			}

			.cls-1, .cls-2 {
			stroke-width: 0px;
			}

			.cls-2 {
			opacity: .5;
			}
		</style>
	</defs>
	<path id="body" class="cls-1" d="m563.81,418H171v-194h-.39c0-70.69,57.31-128,128-128s124.55,53.92,127.84,121.68c-.25,1.06-.41,47.03-.45,59.33,0,1.66,1.34,3,3,3h29.99v51h-30.11c-1.59,0-2.89,1.29-2.89,2.89v34.29c0,1.56,1.26,2.82,2.82,2.82h24.18v9.77c0,1.23,1,2.23,2.23,2.23h65.13c1.46,0,2.65-1.18,2.65-2.65v-158.89c0-.29-.03-.56-.04-.85-2.24-151.41-154.68-266.44-314.98-202.64C127.39,50.05,75,128.62,75,215.36v202.64H27.19c-15.02,0-27.19,12.17-27.19,27.19v317.61c0,15.02,12.17,27.19,27.19,27.19h536.61c15.02,0,27.19-12.17,27.19-27.19v-317.61c0-15.02-12.17-27.19-27.19-27.19Z"/>
	<path id="hole" class="cls-2" d="m367,581.5c0-39.49-32.01-71.5-71.5-71.5s-71.5,32.01-71.5,71.5c0,30.5,19.11,56.53,46,66.8v79.7h53v-80.49c25.84-10.78,44-36.27,44-66.01Z"/>
</svg>