<?xml version="1.0" encoding="UTF-8"?>
<svg xmlns="http://www.w3.org/2000/svg" viewBox="0 0 1024.5 1024.5">
	<defs>
		<style>
			.cls-1, .cls-2, .cls-3, .cls-4, .cls-5, .cls-6 {
			stroke-width: 0px;
			}

			.cls-1, .cls-2, .cls-4 {
			fill: #fff;
			}

			.cls-1, .cls-3 {
			opacity: .22;
			}

			.cls-7, .cls-4 {
			opacity: .75;
			}

			.cls-3 {
			fill: #000047;
			}

			.cls-5 {
			opacity: .5;
			}

			.cls-6 {
			fill: #e5007f;
			}
		</style>
	</defs>
	<g id="bg">
		<rect id="fill" class="cls-6" width="1024" height="1024"/>
	</g>
	<g id="kage">
		<path id="no4" class="cls-3" d="m1024.5,1024.5h-399s210-88.65,399-425.32v425.32Z"/>
		<path id="no3" class="cls-3" d="m.5,1024.5v-28.16s63-257.84,107-341.84c0,0-23,100-41,206,0,0,132.12-288.53,253.06-433.26-.06.26-168.74,343.26-232.9,597.26H.5Z"/>
		<path id="no2" class="cls-3" d="m245.37,1024.5h-92.13s88.61-265.4,223.43-417.7c0,0-93.43,245.7-131.3,417.7Z"/>
		<path id="no1" class="cls-3" d="m520.21,1024.5h-68.13s147.42-262,257.42-288c0,0-77.58,29-189.29,288Z"/>
	</g>
	<g id="hikari">
		<path id="whole" class="cls-1" d="m1024.5,512.5s-205,310-277,387c0,0,132-387,88.58-605.35-.11-.54-219.58,55.35-332.58,176.35S228.5,751.5,92.5,1004.5c8,0,201-745,539-983,0,0-119-6-587,432,0,0,169.58-333,350.29-453-.29,0,85.16,0,85.16,0,0,0-112.45,88-185.45,167,0,0,159.71-146,230.35-167-.35,0,267.87,0,267.87,0,0,0-215.23,91-513.23,627,0,0,113-165,194-242s211-159,429-199c0,0,45,64-71,542,0,0,77-65,193-246v30Z"/>
		<path id="lt" class="cls-1" d="m.5,254.73S182.44,35.5,272.47.5c59.03,0,58.84,0,58.84,0C331.31.5,202.5,49.5.5,294.15"/>
	</g>
	<g id="lock">
		<path id="body" class="cls-4" d="m649.6,427.1h-200.72v-99.13h-.2c0-36.12,29.28-65.41,65.41-65.41s63.64,27.55,65.33,62.18c-.13.54-.21,24.03-.23,30.32,0,.85.68,1.53,1.53,1.53h15.33v26.06h-15.39c-.81,0-1.48.66-1.48,1.48v17.52c0,.8.65,1.44,1.44,1.44h12.35v4.99c0,.63.51,1.14,1.14,1.14h33.28c.75,0,1.35-.61,1.35-1.35v-81.19c0-.15-.01-.29-.02-.43-1.15-77.37-79.04-136.15-160.95-103.55-41.18,16.39-67.95,56.54-67.95,100.86v103.55h-24.43c-7.67,0-13.9,6.22-13.9,13.9v162.3c0,7.67,6.22,13.9,13.9,13.9h274.21c7.67,0,13.9-6.22,13.9-13.9v-162.3c0-7.67-6.22-13.9-13.9-13.9Z"/>
		<path id="hole" class="cls-5" d="m549.04,510.65c0-20.18-16.36-36.54-36.54-36.54s-36.54,16.36-36.54,36.54c0,15.59,9.76,28.89,23.51,34.13v40.73h27.08v-41.13c13.2-5.51,22.48-18.53,22.48-33.73Z"/>
	</g>
	<g id="logo">
		<g id="tSecret" class="cls-7">
			<path id="t" class="cls-2" d="m103.31,882.71v41.34c-11.62,4.08-22.86,6.12-33.74,6.12-29.41,0-44.12-17.73-44.12-53.2v-98.25H8.77v-40.04h16.68v-23.36l55.43-43.38v66.73h22.43v40.04h-22.43v83.05c0,8.28,1.05,14.15,3.15,17.61,2.1,3.46,5.75,5.19,10.94,5.19,2.6,0,5.38-.62,8.34-1.85Z"/>
			<path id="S" class="cls-2" d="m128.71,924.79v-86.57h39.85c0,20.27,2.16,33.43,6.49,39.48,4.32,6.06,10.01,9.08,17.05,9.08,6.3,0,11.21-2.34,14.74-7.02,3.52-4.68,5.28-11.15,5.28-19.41,0-6.65-2-13.61-6.01-20.88-4.01-7.27-13.96-18.34-29.86-33.22-21.45-19.84-35.13-36.12-41.07-48.85-5.93-12.73-8.9-25.27-8.9-37.63,0-18.66,5.19-33.95,15.57-45.88,10.38-11.92,23.54-17.89,39.48-17.89,7.91,0,14.83,1.21,20.76,3.62,5.93,2.41,12.98,7.51,21.13,15.29v-16.68h39.85v80.45h-39.85c0-16.93-1.98-28.3-5.93-34.11-3.96-5.81-9.58-8.71-16.87-8.71-5.31,0-9.55,1.79-12.7,5.37s-4.73,8.39-4.73,14.43c0,7.4,1.84,13.88,5.51,19.43,3.67,5.55,10.94,12.97,21.8,22.26,24.43,21.05,40.41,38.62,47.95,52.71,7.54,14.09,11.31,29.17,11.31,45.23,0,20.64-5.72,37.75-17.15,51.35-11.43,13.6-25.74,20.39-42.91,20.39-15.08,0-28.73-6.3-40.97-18.91v16.68h-39.85Z"/>
			<path id="e" class="cls-2" d="m384.71,866.58l45.97,17.1c-5.69,14.88-14.42,26.34-26.17,34.4-11.76,8.05-25.37,12.08-40.84,12.08-46.78,0-70.17-33.55-70.17-100.66,0-31.64,6.28-55.55,18.84-71.74,12.56-16.19,30.22-24.28,53-24.28,19.8,0,36.07,7.59,48.82,22.76,12.74,15.17,19.12,37.26,19.12,66.25v17.4h-84.9c0,20.64,1.21,34.17,3.63,40.6,2.42,6.43,6.99,9.64,13.7,9.64,5.71,0,10-1.95,12.85-5.84s4.91-9.79,6.15-17.7Zm-36.33-54.31h29.47v-9.04c0-21.16-4.85-31.74-14.55-31.74-5.72,0-9.64,3.23-11.75,9.69-2.11,6.46-3.17,16.83-3.17,31.09Z"/>
			<path id="c" class="cls-2" d="m553.77,851.01l42.82,15.94c-7.04,42.14-29.41,63.21-67.11,63.21-22.74,0-40.63-8.9-53.67-26.69-13.04-17.79-19.56-42.33-19.56-73.59,0-28.18,5.65-50.91,16.96-68.22,11.31-17.3,26.11-25.95,44.4-25.95s29.35,7.72,35.41,23.17h.74v-20.21h39.86v75.26h-39.86c-.87-13.47-3-23.42-6.39-29.85-3.4-6.42-8.5-9.64-15.29-9.64-7.17,0-11.99,4.23-14.46,12.68-2.47,8.45-3.71,22.67-3.71,42.66,0,21.84,1.21,37.36,3.62,46.55s8.06,13.79,16.96,13.79c6.18,0,10.69-3.15,13.53-9.45,2.84-6.3,4.76-16.19,5.75-29.66Z"/>
			<path id="r" class="cls-2" d="m619.39,924.79v-40.04h19.83v-106.03h-19.83v-40.04h75.26v37.26h.74c2.47-10.13,5.62-18.2,9.45-24.19,3.83-5.99,8.12-10.16,12.88-12.51,4.76-2.35,10.97-3.52,18.63-3.52v62.29c-27.81,0-41.71,18.31-41.71,54.94v31.82h22.06v40.04h-97.32Z"/>
			<path id="e-2" data-name="e" class="cls-2" d="m851.29,866.58l45.97,17.1c-5.69,14.88-14.42,26.34-26.17,34.4-11.76,8.05-25.37,12.08-40.84,12.08-46.78,0-70.17-33.55-70.17-100.66,0-31.64,6.28-55.55,18.84-71.74,12.56-16.19,30.22-24.28,53-24.28,19.8,0,36.07,7.59,48.82,22.76,12.74,15.17,19.12,37.26,19.12,66.25v17.4h-84.9c0,20.64,1.21,34.17,3.63,40.6,2.42,6.43,6.99,9.64,13.7,9.64,5.71,0,10-1.95,12.85-5.84,2.86-3.89,4.91-9.79,6.15-17.7Zm-36.33-54.31h29.47v-9.04c0-21.16-4.85-31.74-14.55-31.74-5.72,0-9.64,3.23-11.75,9.69-2.11,6.46-3.17,16.83-3.17,31.09Z"/>
			<path id="t-2" data-name="t" class="cls-2" d="m1012.75,882.71v41.34c-11.62,4.08-22.86,6.12-33.74,6.12-29.41,0-44.12-17.73-44.12-53.2v-98.25h-16.68v-40.04h16.68v-23.36l55.43-43.38v66.73h22.43v40.04h-22.43v83.05c0,8.28,1.05,14.15,3.15,17.61,2.1,3.46,5.75,5.19,10.94,5.19,2.6,0,5.38-.62,8.34-1.85Z"/>
		</g>
	</g>
</svg>